<?xml version="1.0" standalone="no"?><svg xmlns="http://www.w3.org/2000/svg" viewBox="0 0 1440 320"><path fill="#FF92A5" fill-opacity="1" d="M0,320L12.6,282.7C25.3,245,51,171,76,149.3C101.1,128,126,160,152,154.7C176.8,149,202,107,227,106.7C252.6,107,278,149,303,186.7C328.4,224,354,256,379,250.7C404.2,245,429,203,455,197.3C480,192,505,224,531,208C555.8,192,581,128,606,112C631.6,96,657,128,682,154.7C707.4,181,733,203,758,192C783.2,181,808,139,834,133.3C858.9,128,884,160,909,170.7C934.7,181,960,171,985,154.7C1010.5,139,1036,117,1061,122.7C1086.3,128,1112,160,1137,176C1162.1,192,1187,192,1213,213.3C1237.9,235,1263,277,1288,261.3C1313.7,245,1339,171,1364,154.7C1389.5,139,1415,181,1427,202.7L1440,224L1440,0L1427.4,0C1414.7,0,1389,0,1364,0C1338.9,0,1314,0,1288,0C1263.2,0,1238,0,1213,0C1187.4,0,1162,0,1137,0C1111.6,0,1086,0,1061,0C1035.8,0,1011,0,985,0C960,0,935,0,909,0C884.2,0,859,0,834,0C808.4,0,783,0,758,0C732.6,0,707,0,682,0C656.8,0,632,0,606,0C581.1,0,556,0,531,0C505.3,0,480,0,455,0C429.5,0,404,0,379,0C353.7,0,328,0,303,0C277.9,0,253,0,227,0C202.1,0,177,0,152,0C126.3,0,101,0,76,0C50.5,0,25,0,13,0L0,0Z"></path></svg>