<svg width="1919" height="336" viewBox="0 0 1919 336" fill="none" xmlns="http://www.w3.org/2000/svg">
<path d="M-1 113.547L31 98.667C63 84.3435 127 53.7498 191 46.7967C255 39.8435 319 53.7498 383 91.2967C447 128.844 511 187.25 575 195.176C639 202.547 703 158.047 767 172.926C831 187.25 895 262.344 959 284.176C1023 306.844 1087 276.25 1151 209.917C1215 142.75 1279 39.8435 1343 9.66698C1407 -19.9533 1471 24.5467 1535 61.6763C1599 98.2498 1663 128.844 1727 128.426C1791 128.844 1855 98.2498 1887 83.9263L1919 69.0467V336.047H1887C1855 336.047 1791 336.047 1727 336.047C1663 336.047 1599 336.047 1535 336.047C1471 336.047 1407 336.047 1343 336.047C1279 336.047 1215 336.047 1151 336.047C1087 336.047 1023 336.047 959 336.047C895 336.047 831 336.047 767 336.047C703 336.047 639 336.047 575 336.047C511 336.047 447 336.047 383 336.047C319 336.047 255 336.047 191 336.047C127 336.047 63 336.047 31 336.047H-1L-1 113.547Z" fill="#FD93A4"/>
</svg>
